<svg version="1.2" xmlns="http://www.w3.org/2000/svg" viewBox="0 0 1024 1024" width="256" height="256">
	<style>
		.s0 { fill: #00a6f4 } 
		.s1 { fill: #ffffff } 
	</style>
	<g id="Layer 1">
		<path id="Shape 3" fill-rule="evenodd" class="s0" d="m8.99 512.7c0-277.99 224.7-502.7 502.7-502.7 277.99 0 502.7 224.71 502.7 502.7 0 268.48-209.58 487.25-474.34 501.92h-56.72c-264.76-14.67-474.34-233.44-474.34-501.92z"/>
		<path id="Shape 2" fill-rule="evenodd" class="s1" d="m865 337v110c-35.44 0.27-64 29-64 64.5 0 35.5 28.56 64.23 64 64.5v111h-146v-350zm-706 350v-111.02c34.97-0.79 63-29.31 63-64.48 0-35.17-28.03-63.69-63-64.48v-110.02h515v350z"/>
	</g>
</svg>